<?xml version="1.0" standalone="no"?>
<!DOCTYPE svg PUBLIC "-//W3C//DTD SVG 20010904//EN"
 "http://www.w3.org/TR/2001/REC-SVG-20010904/DTD/svg10.dtd">
<svg version="1.0" xmlns="http://www.w3.org/2000/svg"
 width="512.000000pt" height="512.000000pt" viewBox="0 0 512.000000 512.000000"
 preserveAspectRatio="xMidYMid meet">
<metadata>
Created by potrace 1.16, written by Peter Selinger 2001-2019
</metadata>
<g transform="translate(0.000000,512.000000) scale(0.100000,-0.100000)"
fill="#000000" stroke="none">
<path d="M379 4840 c-46 -14 -78 -41 -100 -87 -27 -56 -21 -121 17 -171 45
-58 65 -62 347 -62 196 0 257 -3 272 -13 15 -12 55 -220 234 -1223 l217 -1209
-64 -22 c-193 -66 -345 -238 -387 -438 -28 -136 -11 -257 55 -392 84 -170 244
-283 452 -317 36 -6 36 -7 27 -39 -16 -57 -11 -200 11 -268 54 -176 204 -302
392 -331 231 -35 460 108 528 331 22 69 27 211 11 269 l-10 32 444 0 445 0 -8
-32 c-4 -18 -7 -98 -7 -178 0 -142 1 -147 31 -210 78 -163 213 -229 442 -217
174 9 288 63 385 182 93 115 124 260 91 423 l-6 32 49 0 c58 0 127 32 157 72
12 18 21 49 24 85 3 48 0 64 -20 92 -12 19 -36 44 -51 55 l-28 21 -1452 5
-1452 5 -41 22 c-200 107 -198 374 3 474 l48 24 1310 5 1310 5 68 27 c173 69
305 208 356 374 11 33 90 413 176 845 178 887 176 872 116 993 -39 80 -119
156 -199 188 l-57 23 -1377 0 -1377 0 -28 -21 c-95 -71 -99 -200 -7 -270 l37
-29 1350 -5 c1185 -4 1351 -7 1359 -20 7 -10 -40 -268 -147 -810 -174 -882
-170 -866 -258 -927 -26 -17 -69 -36 -97 -42 -35 -8 -400 -11 -1160 -11
l-1109 0 -10 53 c-12 57 -326 1827 -392 2207 -47 273 -68 331 -149 404 -60 53
-117 82 -189 96 -62 12 -543 12 -582 0z"/>
</g>
</svg>
